<svg xmlns="http://www.w3.org/2000/svg" xmlns:xlink="http://www.w3.org/1999/xlink" width="1414" height="924" viewBox="0 0 1414 924"><defs><style>.a,.ab,.m{fill:#fff}.ad,.b,.c,.d,.e,.s,.y,.z{fill:none}.b{stroke:#fae3d9}.b,.c,.d,.e,.g,.j,.k,.l,.m,.n,.o,.s,.t,.u,.v,.w,.x,.y,.z{stroke-miterlimit:10}.b,.c,.d,.e,.s{stroke-width:8px}.b,.c,.d,.e,.y{mix-blend-mode:multiply;isolation:isolate}.c{stroke:#ceefe4}.d{stroke:#ffb6b9}.e{stroke:#bddfe5}.f{fill:#e6e7ed;opacity:.5}.g{fill:#dfe1e8}.g,.j,.k,.l,.m,.n,.o,.x{stroke:#bdbfc6}.h{font-size:35px;letter-spacing:.03em}.h,.i,.p,.q,.r{font-family:Roboto-Medium,Roboto;font-weight:500}.i{fill:#4767d2;font-size:17px}.j{fill:#f4f4f4}.k,.u{fill:#ceefe4}.l,.v{fill:#bddfe5}.n{fill:#ffb6b9}.o,.t{fill:#fae3d9}.p{font-size:21px}.p,.q,.r{opacity:.7}.q{font-size:20px}.r{font-size:19px}.s{stroke:#96847f}.t,.u,.v,.w{stroke:#fff;stroke-width:4px}.w{fill:#ffb5b8}.x{fill:url(#i)}.y{opacity:.6}.z{stroke:#4767d2;stroke-width:2px}.aa,.ae{fill:#96847f}.ab{font-size:23px;font-family:Roboto-Bold,Roboto;font-weight:700;letter-spacing:.04em}.ac,.ae{stroke:none}.af{filter:url(#k)}.ag{filter:url(#g)}.ah{filter:url(#e)}.ai{filter:url(#c)}.aj{filter:url(#a)}</style><filter id="a" width="40.662" height="40.662" x="294.321" y="390.307" filterUnits="userSpaceOnUse"><feOffset dy="3" input="SourceAlpha"/><feGaussianBlur result="b" stdDeviation="3"/><feFlood flood-color="#fae3d9" flood-opacity=".6"/><feComposite in2="b" operator="in"/><feComposite in="SourceGraphic"/></filter><filter id="c" width="40.662" height="40.662" x="294.321" y="740.581" filterUnits="userSpaceOnUse"><feOffset dy="3" input="SourceAlpha"/><feGaussianBlur result="d" stdDeviation="3"/><feFlood flood-color="#ceefe4" flood-opacity=".6"/><feComposite in2="d" operator="in"/><feComposite in="SourceGraphic"/></filter><filter id="e" width="40.662" height="40.662" x="294.321" y="810.636" filterUnits="userSpaceOnUse"><feOffset dy="3" input="SourceAlpha"/><feGaussianBlur result="f" stdDeviation="3"/><feFlood flood-color="#bddfe5" flood-opacity=".6"/><feComposite in2="f" operator="in"/><feComposite in="SourceGraphic"/></filter><filter id="g" width="40.662" height="40.662" x="294.321" y="320.252" filterUnits="userSpaceOnUse"><feOffset dy="3" input="SourceAlpha"/><feGaussianBlur result="h" stdDeviation="3"/><feFlood flood-color="#ffb5b8" flood-opacity=".6"/><feComposite in2="h" operator="in"/><feComposite in="SourceGraphic"/></filter><linearGradient id="i" x2="1" y1=".5" y2=".5" gradientUnits="objectBoundingBox"><stop offset="0" stop-color="#f1f2f5"/><stop offset="1" stop-color="#f1f2f5"/></linearGradient><filter id="k" width="180.941" height="135.829" x="470.682" y="400.369" filterUnits="userSpaceOnUse"><feOffset dy="6" input="SourceAlpha"/><feGaussianBlur result="l" stdDeviation="6"/><feFlood flood-color="#96847f" flood-opacity=".239"/><feComposite in2="l" operator="in"/><feComposite in="SourceGraphic"/></filter></defs><g transform="translate(-569.588 -287)"><rect width="1414" height="924" class="a" transform="translate(569.588 287)"/><path d="M-5383.859-6126.61h-119.892c-138.849,0-47.6-137.7-203.812-137.7" class="b" transform="translate(6591.803 6958.944)"/><path d="M-5383.859-6188.305h-119.892c-138.849,0-47.6,212.578-203.812,212.578" class="c" transform="translate(6591.803 7020.638)"/><path d="M-5383.859-6095.222h-119.892c-138.849,0-47.6-207.751-203.812-207.751" class="d" transform="translate(6591.803 6927.555)"/><path d="M-5383.859-6188.305h-119.892c-138.849,0-50.822,282.634-203.812,282.634" class="e" transform="translate(6591.803 7020.638)"/><path d="M-5600.8-6355.973h-112.732a7.246,7.246,0,0,0-7.247,7.247v62.807H-5840.76a7.247,7.247,0,0,0-7.247,7.247v545.946a7.247,7.247,0,0,0,7.247,7.247H-5600.8a7.248,7.248,0,0,0,7.247-7.247v-616A7.246,7.246,0,0,0-5600.8-6355.973Z" class="f" transform="translate(6477.795 6884.533)"/><path d="M4,0H123.226a4,4,0,0,1,4,4V70.055a0,0,0,0,1,0,0H0a0,0,0,0,1,0,0V4A4,4,0,0,1,4,0Z" class="g" transform="translate(757.013 519.5)"/><text class="h" transform="translate(753.002 367.482)"><tspan x="-120.853" y="0">INITIAL STATE</tspan></text><text class="i" transform="translate(689.425 464.125)"><tspan x="-54.163" y="0">visual indexes</tspan></text><text class="i" transform="translate(816.46 464.433)"><tspan x="-52.179" y="0">header + data</tspan></text><text class="h" transform="translate(1361.257 367.482)"><tspan x="-119.624" y="0">MOVE ACTION</tspan></text><text class="h" transform="translate(1793.37 367.482)"><tspan x="-65.105" y="0">RESULT</tspan></text><rect width="127.226" height="70.055" class="j" transform="translate(757.013 729.665)"/><rect width="127.226" height="70.055" class="j" transform="translate(757.013 799.72)"/><rect width="127.226" height="70.055" class="j" transform="translate(757.013 869.775)"/><rect width="127.226" height="70.055" class="j" transform="translate(757.013 939.83)"/><rect width="127.226" height="70.055" class="k" transform="translate(757.013 1009.884)"/><path d="M0,0H127.226a0,0,0,0,1,0,0V66.055a4,4,0,0,1-4,4H0a0,0,0,0,1,0,0V0A0,0,0,0,1,0,0Z" class="l" transform="translate(757.013 1079.94)"/><path d="M4,0H127.226a0,0,0,0,1,0,0V70.055a0,0,0,0,1,0,0H0a0,0,0,0,1,0,0V4A4,4,0,0,1,4,0Z" class="m" transform="translate(629.787 589.555)"/><rect width="127.226" height="70.055" class="m" transform="translate(629.787 659.61)"/><rect width="127.226" height="70.055" class="m" transform="translate(629.787 729.665)"/><rect width="127.226" height="70.055" class="m" transform="translate(629.787 799.72)"/><rect width="127.226" height="70.055" class="m" transform="translate(629.787 869.775)"/><rect width="127.226" height="70.055" class="m" transform="translate(629.787 939.83)"/><rect width="127.226" height="70.055" class="m" transform="translate(629.787 1009.884)"/><path d="M0,0H127.226a0,0,0,0,1,0,0V70.055a0,0,0,0,1,0,0H4a4,4,0,0,1-4-4V0A0,0,0,0,1,0,0Z" class="m" transform="translate(629.787 1079.94)"/><rect width="127.226" height="70.055" class="n" transform="translate(757.013 589.555)"/><rect width="127.226" height="70.055" class="o" transform="translate(757.013 659.61)"/><text class="p" transform="translate(820.382 560.388)"><tspan x="-6.768" y="0">A</tspan></text><text class="q" transform="translate(819.946 631.053)"><tspan x="-12.129" y="0">A1</tspan></text><text class="q" transform="translate(819.946 699.094)"><tspan x="-12.129" y="0">A2</tspan></text><text class="q" transform="translate(819.946 770.76)"><tspan x="-12.129" y="0">A3</tspan></text><text class="q" transform="translate(819.946 840.613)"><tspan x="-12.129" y="0">A4</tspan></text><text class="q" transform="translate(819.946 910.467)"><tspan x="-12.129" y="0">A5</tspan></text><text class="q" transform="translate(819.946 982.132)"><tspan x="-12.129" y="0">A6</tspan></text><text class="q" transform="translate(819.946 1051.016)"><tspan x="-12.129" y="0">A7</tspan></text><text class="q" transform="translate(819.946 1120.028)"><tspan x="-12.129" y="0">A8</tspan></text><text class="r" transform="translate(692.966 630.053)"><tspan x="-5.399" y="0">0</tspan></text><text class="r" transform="translate(692.966 698.094)"><tspan x="-5.399" y="0">1</tspan></text><text class="r" transform="translate(692.966 769.76)"><tspan x="-5.399" y="0">2</tspan></text><text class="r" transform="translate(692.966 839.613)"><tspan x="-5.399" y="0">3</tspan></text><text class="r" transform="translate(692.966 909.467)"><tspan x="-5.399" y="0">4</tspan></text><text class="r" transform="translate(692.966 981.132)"><tspan x="-5.399" y="0">5</tspan></text><text class="r" transform="translate(692.966 1050.016)"><tspan x="-5.399" y="0">6</tspan></text><text class="r" transform="translate(692.966 1119.028)"><tspan x="-5.399" y="0">7</tspan></text><path d="M-5535.9-6167.315l14.5-14.5-14.5-14.5" class="s" transform="translate(6731.158 7014.144)"/><g class="aj"><g class="t" transform="matrix(1, 0, 0, 1, 569.59, 287) translate(307.32 400.31)"><circle cx="7.331" cy="7.331" r="7.331" class="ac"/><circle cx="7.331" cy="7.331" r="9.331" class="ad"/></g></g><g class="ai"><g class="u" transform="matrix(1, 0, 0, 1, 569.59, 287) translate(307.32 750.58)"><circle cx="7.331" cy="7.331" r="7.331" class="ac"/><circle cx="7.331" cy="7.331" r="9.331" class="ad"/></g></g><g class="ah"><g class="v" transform="matrix(1, 0, 0, 1, 569.59, 287) translate(307.32 820.64)"><circle cx="7.331" cy="7.331" r="7.331" class="ac"/><circle cx="7.331" cy="7.331" r="9.331" class="ad"/></g></g><g class="ag"><g class="w" transform="matrix(1, 0, 0, 1, 569.59, 287) translate(307.32 330.25)"><circle cx="7.331" cy="7.331" r="7.331" class="ac"/><circle cx="7.331" cy="7.331" r="9.331" class="ad"/></g></g><path d="M-5265.525-6354.972h-112.731a7.246,7.246,0,0,0-7.247,7.246v62.808h-119.98a7.247,7.247,0,0,0-7.247,7.247v545.945a7.247,7.247,0,0,0,7.247,7.247h239.959a7.247,7.247,0,0,0,7.247-7.247v-616A7.246,7.246,0,0,0-5265.525-6354.972Z" class="f" transform="translate(6749.962 6885.344)"/><path d="M4,0H123.226a4,4,0,0,1,4,4V70.055a0,0,0,0,1,0,0H0a0,0,0,0,1,0,0V4A4,4,0,0,1,4,0Z" class="g" transform="translate(1364.458 519.5)"/><rect width="127.226" height="70.055" class="n" transform="translate(1364.458 589.555)"/><rect width="127.226" height="70.055" class="o" transform="translate(1364.458 659.61)"/><rect width="127.226" height="70.055" class="x" transform="translate(1364.458 729.665)"/><rect width="127.226" height="70.055" class="j" transform="translate(1364.458 799.72)"/><rect width="127.226" height="70.055" class="j" transform="translate(1364.458 869.775)"/><rect width="127.226" height="70.055" class="j" transform="translate(1364.458 939.83)"/><path d="M4,0H127.226a0,0,0,0,1,0,0V70.055a0,0,0,0,1,0,0H0a0,0,0,0,1,0,0V4A4,4,0,0,1,4,0Z" class="m" transform="translate(1237.232 589.555)"/><rect width="127.226" height="70.055" class="m" transform="translate(1237.232 659.61)"/><rect width="127.226" height="70.055" class="m" transform="translate(1237.232 729.665)"/><rect width="127.226" height="70.055" class="m" transform="translate(1237.232 799.72)"/><rect width="127.226" height="70.055" class="m" transform="translate(1237.232 869.775)"/><g class="y"><path d="M-5385.5-6206.306H-5512.73v70.055h254.452v-70.055Z" class="ac" transform="translate(6749.962 7006.026)"/><path d="M -5506.73046875 -6200.30615234375 L -5506.73046875 -6142.25146484375 L -5385.5048828125 -6142.25146484375 L -5264.2783203125 -6142.25146484375 L -5264.2783203125 -6200.30615234375 L -5385.5048828125 -6200.30615234375 L -5506.73046875 -6200.30615234375 M -5512.73046875 -6206.30615234375 L -5385.5048828125 -6206.30615234375 L -5258.2783203125 -6206.30615234375 L -5258.2783203125 -6136.25146484375 L -5385.5048828125 -6136.25146484375 L -5512.73046875 -6136.25146484375 L -5512.73046875 -6206.30615234375 Z" class="ae" transform="translate(6749.962 7006.026)"/></g><rect width="127.226" height="70.055" class="m" transform="translate(1237.232 939.83)"/><rect width="127.226" height="70.055" class="m" transform="translate(1237.232 1009.884)"/><path d="M0,0H127.226a0,0,0,0,1,0,0V70.055a0,0,0,0,1,0,0H4a4,4,0,0,1-4-4V0A0,0,0,0,1,0,0Z" class="m" transform="translate(1237.232 1079.94)"/><text class="p" transform="translate(1427.825 560.388)"><tspan x="-6.768" y="0">A</tspan></text><text class="q" transform="translate(1427.39 631.053)"><tspan x="-12.129" y="0">A1</tspan></text><text class="q" transform="translate(1427.39 699.094)"><tspan x="-12.129" y="0">A2</tspan></text><text class="q" transform="translate(1427.39 770.76)"><tspan x="-12.129" y="0">A3</tspan></text><text class="q" transform="translate(1427.39 840.613)"><tspan x="-12.129" y="0">A4</tspan></text><text class="q" transform="translate(1427.39 910.467)"><tspan x="-12.129" y="0">A5</tspan></text><text class="q" transform="translate(1427.39 982.132)"><tspan x="-12.129" y="0">A6</tspan></text><text class="r" transform="translate(1300.41 630.053)"><tspan x="-5.399" y="0">0</tspan></text><text class="r" transform="translate(1300.41 698.094)"><tspan x="-5.399" y="0">1</tspan></text><text class="r" transform="translate(1300.41 769.76)"><tspan x="-5.399" y="0">2</tspan></text><text class="r" transform="translate(1300.41 839.613)"><tspan x="-5.399" y="0">3</tspan></text><text class="r" transform="translate(1300.41 909.467)"><tspan x="-5.399" y="0">4</tspan></text><text class="r" transform="translate(1300.41 981.132)"><tspan x="-5.399" y="0">5</tspan></text><text class="r" transform="translate(1300.41 1050.016)"><tspan x="-5.399" y="0">6</tspan></text><text class="r" transform="translate(1300.41 1119.028)"><tspan x="-5.399" y="0">7</tspan></text><path d="M-5027.665-6354.972H-5140.4a7.246,7.246,0,0,0-7.247,7.246v62.808h-119.979a7.247,7.247,0,0,0-7.247,7.247v545.945a7.247,7.247,0,0,0,7.247,7.247h239.958a7.246,7.246,0,0,0,7.247-7.247v-616A7.245,7.245,0,0,0-5027.665-6354.972Z" class="f" transform="translate(6943.05 6885.344)"/><path d="M4,0H123.226a4,4,0,0,1,4,4V70.055a0,0,0,0,1,0,0H0a0,0,0,0,1,0,0V4A4,4,0,0,1,4,0Z" class="g" transform="translate(1795.406 519.5)"/><rect width="127.226" height="70.055" class="x" transform="translate(1795.406 589.555)"/><rect width="127.226" height="70.055" class="j" transform="translate(1795.406 939.83)"/><rect width="127.226" height="70.055" class="j" transform="translate(1795.406 1009.884)"/><path d="M0,0H127.226a0,0,0,0,1,0,0V66.055a4,4,0,0,1-4,4H0a0,0,0,0,1,0,0V0A0,0,0,0,1,0,0Z" class="j" transform="translate(1795.406 1079.94)"/><path d="M4,0H127.226a0,0,0,0,1,0,0V70.055a0,0,0,0,1,0,0H0a0,0,0,0,1,0,0V4A4,4,0,0,1,4,0Z" class="m" transform="translate(1668.18 589.555)"/><rect width="127.226" height="70.055" class="m" transform="translate(1668.18 659.61)"/><rect width="127.226" height="70.055" class="m" transform="translate(1668.18 729.665)"/><rect width="127.226" height="70.055" class="m" transform="translate(1668.18 799.72)"/><rect width="127.226" height="70.055" class="m" transform="translate(1668.18 869.775)"/><rect width="127.226" height="70.055" class="m" transform="translate(1668.18 939.83)"/><rect width="127.226" height="70.055" class="m" transform="translate(1668.18 1009.884)"/><path d="M0,0H127.226a0,0,0,0,1,0,0V70.055a0,0,0,0,1,0,0H4a4,4,0,0,1-4-4V0A0,0,0,0,1,0,0Z" class="m" transform="translate(1668.18 1079.94)"/><text class="p" transform="translate(1858.774 560.388)"><tspan x="-6.768" y="0">A</tspan></text><text class="q" transform="translate(1858.339 631.053)"><tspan x="-12.129" y="0">A3</tspan></text><rect width="127.226" height="70.055" class="n" transform="translate(1795.406 659.61)"/><rect width="127.226" height="70.055" class="o" transform="translate(1795.406 729.665)"/><rect width="127.226" height="70.055" class="k" transform="translate(1795.406 799.72)"/><text class="q" transform="translate(1858.339 699.094)"><tspan x="-12.129" y="0">A1</tspan></text><rect width="127.226" height="70.055" class="l" transform="translate(1795.406 869.775)"/><text class="q" transform="translate(1858.339 770.76)"><tspan x="-12.129" y="0">A2</tspan></text><text class="q" transform="translate(1858.339 840.613)"><tspan x="-12.129" y="0">A7</tspan></text><text class="q" transform="translate(1858.339 910.467)"><tspan x="-12.129" y="0">A8</tspan></text><text class="q" transform="translate(1858.339 982.132)"><tspan x="-12.129" y="0">A4</tspan></text><rect width="127.226" height="70.055" class="k" transform="translate(1364.458 1009.884)"/><path d="M0,0H127.226a0,0,0,0,1,0,0V66.055a4,4,0,0,1-4,4H0a0,0,0,0,1,0,0V0A0,0,0,0,1,0,0Z" class="l" transform="translate(1364.458 1079.94)"/><text class="q" transform="translate(1858.339 1051.016)"><tspan x="-12.129" y="0">A5</tspan></text><text class="q" transform="translate(1858.339 1120.028)"><tspan x="-12.129" y="0">A6</tspan></text><text class="r" transform="translate(1731.359 630.053)"><tspan x="-5.399" y="0">0</tspan></text><text class="r" transform="translate(1731.359 698.094)"><tspan x="-5.399" y="0">1</tspan></text><text class="r" transform="translate(1731.359 769.76)"><tspan x="-5.399" y="0">2</tspan></text><text class="r" transform="translate(1731.359 839.613)"><tspan x="-5.399" y="0">3</tspan></text><text class="r" transform="translate(1731.359 909.467)"><tspan x="-5.399" y="0">4</tspan></text><text class="r" transform="translate(1731.359 981.132)"><tspan x="-5.399" y="0">5</tspan></text><text class="r" transform="translate(1731.359 1050.016)"><tspan x="-5.399" y="0">6</tspan></text><text class="r" transform="translate(1731.359 1119.028)"><tspan x="-5.399" y="0">7</tspan></text><g><g transform="translate(630.689 483.156) translate(0 0)"><g transform="translate(0 7.198)"><line x1="126.775" class="z"/></g><line y1="13.792" class="z"/><g transform="translate(126.776 0.302)"><line y1="13.792" class="z"/></g></g></g><g transform="translate(757.465 483.314)"><g transform="translate(0 7.198)"><line x1="126.775" class="z"/></g><line y1="13.792" class="z"/><g transform="translate(126.775)"><line y1="13.792" class="z"/></g></g><text class="q" transform="translate(1427.39 1051.016)"><tspan x="-12.129" y="0">A7</tspan></text><text class="q" transform="translate(1427.39 1120.028)"><tspan x="-12.129" y="0">A8</tspan></text><g><g class="af"><path d="M-5491.039-6933.135h-126a9.467,9.467,0,0,0-9.469,9.469v67.734a9.468,9.468,0,0,0,9.469,9.47h49.846l13.156,13.156,13.156-13.156h49.843a9.471,9.471,0,0,0,9.472-9.47v-67.734A9.47,9.47,0,0,0-5491.039-6933.135Z" class="aa" transform="translate(1058.271 699.368) matrix(1, 0, 0, 1, -488.68, -412.37) translate(6115.19 7345.5)"/></g><text class="ab" transform="translate(1058.271 699.368) translate(66.916 34.178)"><tspan x="-24.761" y="0">final</tspan><tspan x="-40.236" y="25">index 3</tspan></text></g></g></svg>