<svg xmlns="http://www.w3.org/2000/svg" width="16" height="16" fill="none" viewBox="0 0 16 16"><g clip-path="url(#clip0_469_25628)"><path stroke="#1A42E8" stroke-linecap="round" stroke-linejoin="round" d="M1.33398 5.33333C1.33398 4.97971 1.47446 4.64057 1.72451 4.39052C1.97456 4.14048 2.3137 4 2.66732 4L13.334 4C13.6876 4 14.0267 4.14048 14.2768 4.39052C14.5268 4.64057 14.6673 4.97971 14.6673 5.33333L14.6673 10.6667C14.6673 11.0203 14.5268 11.3594 14.2768 11.6095C14.0267 11.8595 13.6876 12 13.334 12L2.66732 12C2.3137 12 1.97456 11.8595 1.72451 11.6095C1.47446 11.3594 1.33398 11.0203 1.33398 10.6667L1.33398 5.33333Z"/><path stroke="#1A42E8" stroke-linecap="round" stroke-linejoin="round" d="M4 6.66666V6.67333"/><path stroke="#1A42E8" stroke-linecap="round" stroke-linejoin="round" d="M6.66602 6.66666V6.67333"/><path stroke="#1A42E8" stroke-linecap="round" stroke-linejoin="round" d="M9.33398 6.66666V6.67333"/><path stroke="#1A42E8" stroke-linecap="round" stroke-linejoin="round" d="M12 6.66666V6.67333"/><path stroke="#1A42E8" stroke-linecap="round" stroke-linejoin="round" d="M4 9.33333V9.34"/><path stroke="#1A42E8" stroke-linecap="round" stroke-linejoin="round" d="M12 9.33333V9.34"/><path stroke="#1A42E8" stroke-linecap="round" stroke-linejoin="round" d="M6.66602 9.33333L9.33268 9.34"/></g><defs><clipPath id="clip0_469_25628"><rect width="16" height="16" fill="#fff"/></clipPath></defs></svg>